name D:\school\WTK\thesis\model\3dpredictsim\Results\MidTarsalJoint\Fal_s1_bCst_PF_Gefen2002_ls150_MT_nl_Gefen2002_MTP_T1_spx10_PIM_w1e+03_w1e+04_ig23.mot
datacolumns 128
datarows 4
range 1.66024070 1.69344551
endheader
time	pelvis_tilt	pelvis_list	pelvis_rotation	pelvis_tx	pelvis_ty	pelvis_tz	hip_flexion_l	hip_adduction_l	hip_rotation_l	hip_flexion_r	hip_adduction_r	hip_rotation_r	knee_angle_l	knee_angle_r	ankle_angle_l	ankle_angle_r	subtalar_angle_l	subtalar_angle_r	mtj_angle_l	mtj_angle_r	mtp_angle_l	mtp_angle_r	lumbar_extension	lumbar_bending	lumbar_rotation	arm_flex_l	arm_add_l	arm_rot_l	arm_flex_r	arm_add_r	arm_rot_r	elbow_flex_l	elbow_flex_r	pro_sup_l	pro_sup_r	glut_med1_l/activation	glut_med2_l/activation	glut_med3_l/activation	glut_min1_l/activation	glut_min2_l/activation	glut_min3_l/activation	semimem_l/activation	semiten_l/activation	bifemlh_l/activation	bifemsh_l/activation	sar_l/activation	add_long_l/activation	add_brev_l/activation	add_mag1_l/activation	add_mag2_l/activation	add_mag3_l/activation	tfl_l/activation	pect_l/activation	grac_l/activation	glut_max1_l/activation	glut_max2_l/activation	glut_max3_l/activation	iliacus_l/activation	psoas_l/activation	quad_fem_l/activation	gem_l/activation	peri_l/activation	rect_fem_l/activation	vas_med_l/activation	vas_int_l/activation	vas_lat_l/activation	med_gas_l/activation	lat_gas_l/activation	soleus_l/activation	tib_post_l/activation	flex_dig_l/activation	flex_hal_l/activation	tib_ant_l/activation	per_brev_l/activation	per_long_l/activation	per_tert_l/activation	ext_dig_l/activation	ext_hal_l/activation	ercspn_l/activation	intobl_l/activation	extobl_l/activation	glut_med1_r/activation	glut_med2_r/activation	glut_med3_r/activation	glut_min1_r/activation	glut_min2_r/activation	glut_min3_r/activation	semimem_r/activation	semiten_r/activation	bifemlh_r/activation	bifemsh_r/activation	sar_r/activation	add_long_r/activation	add_brev_r/activation	add_mag1_r/activation	add_mag2_r/activation	add_mag3_r/activation	tfl_r/activation	pect_r/activation	grac_r/activation	glut_max1_r/activation	glut_max2_r/activation	glut_max3_r/activation	iliacus_r/activation	psoas_r/activation	quad_fem_r/activation	gem_r/activation	peri_r/activation	rect_fem_r/activation	vas_med_r/activation	vas_int_r/activation	vas_lat_r/activation	med_gas_r/activation	lat_gas_r/activation	soleus_r/activation	tib_post_r/activation	flex_dig_r/activation	flex_hal_r/activation	tib_ant_r/activation	per_brev_r/activation	per_long_r/activation	per_tert_r/activation	ext_dig_r/activation	ext_hal_r/activation	ercspn_r/activation	intobl_r/activation	extobl_r/activation	
          1.66024070	         -2.93017642	          0.94708254	         -5.35319059	          2.07530087	          0.93558568	          0.00289073	         27.60170520	          2.20003855	          1.94530789	        -14.21550755	         -0.35409658	          9.07193574	         -9.99744042	        -10.43852990	          7.47827482	         -3.08005202	         -3.09756656	         18.75434753	         -8.68431314	         11.56292086	         -2.00933776	         -0.33191869	         -0.88308150	          0.71871319	          1.74862029	         -7.76536064	        -13.45811625	          5.47733132	          3.93388303	        -13.45225976	         12.53172993	         19.42012209	         31.63727951	         86.51662706	         86.51662706	          0.05981159	          0.05000042	          0.05922361	          0.05000013	          0.05000020	          0.05003090	          0.14435404	          0.06245371	          0.15530701	          0.05000073	          0.05000029	          0.08842532	          0.17596072	          0.16130311	          0.14581885	          0.12699334	          0.05922411	          0.05001194	          0.12043132	          0.05922440	          0.05922756	          0.10265544	          0.05000006	          0.05000009	          0.12587058	          0.05000050	          0.05000017	          0.05000009	          0.06429644	          0.06563834	          0.05564031	          0.05002142	          0.07290898	          0.05078304	          0.05576914	          0.05016559	          0.05072007	          0.43710168	          0.19854353	          0.18054082	          0.11088588	          0.45536565	          0.10680570	          0.05000005	          0.13445594	          0.10803550	          0.30050790	          0.17878487	          0.11160945	          0.26830933	          0.24129938	          0.16562886	          0.05001017	          0.05000059	          0.05000037	          0.05000031	          0.10600343	          0.05000014	          0.05000021	          0.05000039	          0.05000118	          0.05000210	          0.33613105	          0.05000040	          0.05000042	          0.05851817	          0.05272550	          0.05001111	          0.37547639	          0.61132955	          0.05000021	          0.05000160	          0.07872869	          0.20930266	          0.05752766	          0.05640932	          0.05727484	          0.27081238	          0.36909269	          0.39821463	          0.22973790	          0.09944940	          0.17637246	          0.05922355	          0.33322356	          0.22023325	          0.07014849	          0.05000003	          0.05000009	          0.05000000	          0.05133056	          0.05394611	
          1.67130897	         -2.92793562	          1.05296456	         -5.61774270	          2.09180321	          0.93509495	          0.00261227	         27.10180284	          2.59464054	          2.09222706	        -14.26655583	         -0.59758925	          9.00260562	        -10.14038815	        -11.96888364	          6.88191976	         -3.52023076	         -3.29488238	         19.20652306	         -9.06397403	         10.42919542	         -2.04648519	          1.39023324	         -0.69575623	          0.50977163	          1.80837668	         -8.56764536	        -13.45019625	          5.44043125	          3.68886004	        -13.46108982	         12.86680779	         19.07617036	         32.64576865	         86.51662706	         86.51662706	          0.05049652	          0.05000310	          0.05000017	          0.05922603	          0.05922365	          0.05000043	          0.12187225	          0.05272715	          0.13112080	          0.05000031	          0.05000251	          0.10412401	          0.18785409	          0.22044451	          0.17893318	          0.13078792	          0.05000059	          0.08306183	          0.10167598	          0.05000084	          0.05000343	          0.12211645	          0.07016861	          0.07014872	          0.36265781	          0.10376750	          0.05174779	          0.06876766	          0.12439668	          0.13951935	          0.09990611	          0.05000015	          0.08308636	          0.05000002	          0.07014824	          0.07013876	          0.07014826	          0.46972410	          0.23039331	          0.16796484	          0.09363204	          0.47924226	          0.09017179	          0.05000003	          0.11351562	          0.09120991	          0.25755483	          0.15094114	          0.09423113	          0.22652272	          0.20371946	          0.13983567	          0.05000042	          0.05000012	          0.05000014	          0.05000059	          0.08949601	          0.05000015	          0.05000017	          0.05000022	          0.05000051	          0.05000026	          0.28378210	          0.05000144	          0.05000080	          0.05007389	          0.05001859	          0.05000048	          0.31699924	          0.55129910	          0.06567624	          0.05924330	          0.07927234	          0.17670954	          0.07287816	          0.07084325	          0.07334208	          0.22863573	          0.31161007	          0.35282040	          0.20833365	          0.08398059	          0.15207987	          0.05000000	          0.31445727	          0.21303523	          0.05922352	          0.05922358	          0.05922359	          0.05000006	          0.07014859	          0.08032216	
          1.68237724	         -2.92146414	          1.16932786	         -5.84711370	          2.10855215	          0.93453749	          0.00234720	         26.56364245	          2.95289124	          2.28560928	        -14.26355106	         -0.83264338	          8.93737843	        -10.75469431	        -13.60016514	          6.01522569	         -4.02168160	         -3.46046784	         19.57870060	         -9.46988915	          8.99908329	         -2.03219066	          3.75796593	         -0.49354077	          0.27800184	          1.85858050	         -9.36587334	        -13.45381509	          5.46952852	          3.37666637	        -13.47266868	         13.15216504	         18.72855161	         33.63934083	         86.51662706	         86.51662706	          0.05000014	          0.05000011	          0.05000138	          0.05000213	          0.05000021	          0.05000034	          0.11590470	          0.08589437	          0.12153561	          0.05000300	          0.05923114	          0.08790767	          0.15859762	          0.18611238	          0.15106627	          0.16121346	          0.05000054	          0.07013635	          0.08586520	          0.05000121	          0.13961766	          0.10327695	          0.05924053	          0.05922377	          0.30617704	          0.08760674	          0.05000073	          0.05805771	          0.10502306	          0.11779052	          0.08434667	          0.05923479	          0.07014750	          0.06092369	          0.05922366	          0.05922354	          0.05922388	          0.39656866	          0.19451186	          0.14986847	          0.07904969	          0.50947376	          0.07612834	          0.05000000	          0.09583661	          0.07700476	          0.21744303	          0.12743339	          0.07955547	          0.19124387	          0.17199198	          0.11805752	          0.05002027	          0.05922336	          0.05922347	          0.05000019	          0.07555796	          0.07984668	          0.05923227	          0.05922451	          0.05922488	          0.05922422	          0.23958564	          0.07015898	          0.05922364	          0.05000135	          0.05000170	          0.05922265	          0.26762943	          0.53413059	          0.05544820	          0.05001695	          0.06692641	          0.14918858	          0.10054229	          0.09623073	          0.09656733	          0.19302771	          0.26307992	          0.31389650	          0.18339956	          0.07090774	          0.13219076	          0.14140810	          0.32666683	          0.22467751	          0.05000002	          0.05000002	          0.05000005	          0.05089362	          0.05922359	          0.08222215	
          1.69344551	         -2.91184683	          1.30354195	         -6.03967785	          2.12542623	          0.93393013	          0.00208963	         25.97906962	          3.26432579	          2.49115534	        -14.18706752	         -1.06419702	          8.86764901	        -11.43131794	        -15.34489271	          5.02901069	         -4.56134214	         -3.60863805	         19.88051469	         -9.77692530	          7.25785155	         -2.02523095	          6.66977292	         -0.28610018	          0.01798336	          1.89812598	        -10.13774446	        -13.47187362	          5.57392105	          3.01820019	        -13.48577512	         13.39875087	         18.37095899	         34.60763127	         86.51662706	         86.51662706	          0.29184348	          0.31487955	          0.33138994	          0.27780385	          0.24905824	          0.23633839	          0.09785357	          0.07251769	          0.10260754	          0.06569090	          0.05000661	          0.07421685	          0.13389748	          0.15712727	          0.12754755	          0.17639871	          0.05000057	          0.05921388	          0.07250190	          0.22331477	          0.20859652	          0.16513662	          0.05001438	          0.05000029	          0.25849267	          0.07396294	          0.10061759	          0.05000010	          0.08867770	          0.14623402	          0.07121152	          0.05000949	          0.05922265	          0.05143536	          0.05000010	          0.05000022	          0.05000037	          0.61537849	          0.35396618	          0.19460919	          0.47007389	          0.64331788	          0.37593173	          0.06211571	          0.08308896	          0.06501194	          0.27765795	          0.10765794	          0.07121163	          0.30331659	          0.15827894	          0.09967167	          0.05000062	          0.05000010	          0.05000010	          0.05000034	          0.08308387	          0.06741128	          0.05000739	          0.05000087	          0.05000129	          0.05000067	          0.24317360	          0.05923249	          0.05000036	          0.05029548	          0.05001239	          0.05000030	          0.23806722	          0.52684234	          0.05000022	          0.05004535	          0.05922640	          0.13807552	          0.09548759	          0.09284910	          0.09327838	          0.16296532	          0.22210757	          0.26536390	          0.18169134	          0.07019298	          0.12406035	          0.11938501	          0.27579138	          0.18968621	          0.34135906	          0.16438799	          0.15336116	          0.07511171	          0.05000003	          0.06941676	
